HIERARCHY
ROOT Hip
{
  OFFSET 0.000000 0.000000 0.000000
  CHANNELS 6 Xposition Yposition Zposition Zrotation Xrotation Yrotation
  JOINT RHip
  {
    OFFSET 0.000000 0.000000 0.000000
    CHANNELS 3 Xposition Yposition Zposition
    End Site
    {
      OFFSET 0.000000 0.100000 0.000000
    }
  }
  JOINT RKnee
  {
    OFFSET 0.000000 0.000000 0.000000
    CHANNELS 3 Xposition Yposition Zposition
    End Site
    {
      OFFSET 0.000000 0.100000 0.000000
    }
  }
  JOINT RFoot
  {
    OFFSET 0.000000 0.000000 0.000000
    CHANNELS 3 Xposition Yposition Zposition
    End Site
    {
      OFFSET 0.000000 0.100000 0.000000
    }
  }
  JOINT LHip
  {
    OFFSET 0.000000 0.000000 0.000000
    CHANNELS 3 Xposition Yposition Zposition
    End Site
    {
      OFFSET 0.000000 0.100000 0.000000
    }
  }
  JOINT LKnee
  {
    OFFSET 0.000000 0.000000 0.000000
    CHANNELS 3 Xposition Yposition Zposition
    End Site
    {
      OFFSET 0.000000 0.100000 0.000000
    }
  }
  JOINT LFoot
  {
    OFFSET 0.000000 0.000000 0.000000
    CHANNELS 3 Xposition Yposition Zposition
    End Site
    {
      OFFSET 0.000000 0.100000 0.000000
    }
  }
  JOINT Spine
  {
    OFFSET 0.000000 0.000000 0.000000
    CHANNELS 3 Xposition Yposition Zposition
    End Site
    {
      OFFSET 0.000000 0.100000 0.000000
    }
  }
  JOINT Thorax
  {
    OFFSET 0.000000 0.000000 0.000000
    CHANNELS 3 Xposition Yposition Zposition
    End Site
    {
      OFFSET 0.000000 0.100000 0.000000
    }
  }
  JOINT Nose
  {
    OFFSET 0.000000 0.000000 0.000000
    CHANNELS 3 Xposition Yposition Zposition
    End Site
    {
      OFFSET 0.000000 0.100000 0.000000
    }
  }
  JOINT Head
  {
    OFFSET 0.000000 0.000000 0.000000
    CHANNELS 3 Xposition Yposition Zposition
    End Site
    {
      OFFSET 0.000000 0.100000 0.000000
    }
  }
  JOINT LShoulder
  {
    OFFSET 0.000000 0.000000 0.000000
    CHANNELS 3 Xposition Yposition Zposition
    End Site
    {
      OFFSET 0.000000 0.100000 0.000000
    }
  }
  JOINT LElbow
  {
    OFFSET 0.000000 0.000000 0.000000
    CHANNELS 3 Xposition Yposition Zposition
    End Site
    {
      OFFSET 0.000000 0.100000 0.000000
    }
  }
  JOINT LWrist
  {
    OFFSET 0.000000 0.000000 0.000000
    CHANNELS 3 Xposition Yposition Zposition
    End Site
    {
      OFFSET 0.000000 0.100000 0.000000
    }
  }
  JOINT RShoulder
  {
    OFFSET 0.000000 0.000000 0.000000
    CHANNELS 3 Xposition Yposition Zposition
    End Site
    {
      OFFSET 0.000000 0.100000 0.000000
    }
  }
  JOINT RElbow
  {
    OFFSET 0.000000 0.000000 0.000000
    CHANNELS 3 Xposition Yposition Zposition
    End Site
    {
      OFFSET 0.000000 0.100000 0.000000
    }
  }
  JOINT RWrist
  {
    OFFSET 0.000000 0.000000 0.000000
    CHANNELS 3 Xposition Yposition Zposition
    End Site
    {
      OFFSET 0.000000 0.100000 0.000000
    }
  }
}
MOTION
Frames: 9
Frame Time: 0.033333
0.000003 1.092975 0.000067 0.000000 0.000000 0.000000 -0.033955 -0.038436 0.019323 -0.054963 -0.119832 0.234493 0.193327 0.125847 0.174302 0.033903 0.038300 -0.019349 -0.102323 0.414024 0.042945 0.436213 -0.073862 0.057745 0.327416 -0.000033 -0.237717 0.556706 -0.054331 -0.218878 0.237585 -0.219293 -0.284775 -0.096172 -0.206310 -0.138770 0.501295 -0.143154 -0.336651 -0.261507 -0.233167 -0.474014 0.360504 -0.611082 -0.427990 0.580939 0.062907 -0.096069 0.216502 -0.162811 -0.046094 -0.097603 -0.028393 -0.155111
0.000003 1.092978 0.000037 0.000000 0.000000 0.000000 -0.034090 -0.039170 0.005469 0.112389 -0.077350 0.227854 0.220071 0.129471 0.178021 0.034046 0.039022 -0.005437 -0.211928 0.310425 0.099858 0.477740 -0.165216 0.098476 0.286822 -0.026105 -0.231706 0.519929 -0.053605 -0.232627 0.255485 -0.133012 -0.297674 -0.046250 -0.119697 -0.181690 0.515918 -0.178038 -0.334807 -0.066015 -0.215086 -0.455780 0.494429 -0.392402 -0.440904 0.488978 0.022900 -0.125544 0.107088 -0.118666 -0.087843 -0.226526 -0.006031 -0.146506
0.000002 1.092983 0.000012 0.000000 0.000000 0.000000 -0.006498 -0.045335 -0.011667 0.330027 -0.072352 0.194138 0.314302 0.074096 0.135679 0.006460 0.045172 0.011748 -0.235256 0.185693 0.201696 0.518552 -0.296040 0.169499 0.288447 -0.056254 -0.222785 0.529049 -0.056862 -0.224496 0.253946 -0.085033 -0.292578 0.025101 -0.037900 -0.205449 0.535545 -0.222620 -0.319076 0.111968 -0.255186 -0.464272 0.612315 -0.271843 -0.443412 0.495184 -0.002777 -0.134942 0.007764 -0.102622 -0.118156 -0.310346 -0.059247 -0.116324
0.000002 1.092990 0.000024 0.000000 0.000000 0.000000 0.037564 -0.059088 -0.022040 0.566707 -0.083102 0.185076 0.430924 -0.018502 0.033434 -0.037607 0.058908 0.022101 -0.203462 0.067039 0.290818 0.578180 -0.422171 0.208496 0.341928 -0.068269 -0.223507 0.596942 -0.052826 -0.198340 0.204997 -0.091719 -0.264660 0.045801 0.024993 -0.176712 0.577837 -0.257455 -0.304101 0.180301 -0.352457 -0.485447 0.655344 -0.293475 -0.429621 0.611718 -0.025116 -0.123169 -0.028993 -0.134121 -0.127373 -0.235747 -0.203440 -0.069729
0.000003 1.093001 0.000094 0.000000 0.000000 0.000000 0.075185 -0.077301 -0.027188 0.802897 -0.087207 0.212168 0.535649 -0.139546 -0.114074 -0.075240 0.077101 0.027115 -0.142678 -0.012813 0.329265 0.656132 -0.511238 0.176851 0.441649 -0.046490 -0.227116 0.750908 -0.019448 -0.144534 0.173703 -0.135025 -0.224326 0.021033 0.078790 -0.086867 0.690846 -0.258417 -0.283528 0.123085 -0.480329 -0.490078 0.580195 -0.436233 -0.401293 0.828203 -0.029185 -0.084029 0.044515 -0.176634 -0.107202 -0.001328 -0.391407 -0.030965
0.000004 1.093008 0.000168 0.000000 0.000000 0.000000 0.079768 -0.103649 -0.025372 0.961035 -0.084743 0.218065 0.580269 -0.257197 -0.211489 -0.079835 0.103438 0.025153 -0.077098 -0.011583 0.308147 0.707961 -0.543618 0.109915 0.545484 -0.009008 -0.211680 0.933113 0.026926 -0.085809 0.200419 -0.187826 -0.189952 -0.026665 0.103976 0.000153 0.852621 -0.211256 -0.260521 0.022672 -0.595953 -0.502888 0.422627 -0.631043 -0.405716 1.037592 -0.013904 -0.028976 0.186163 -0.214704 -0.071572 0.260953 -0.514161 -0.024135
0.000004 1.093005 0.000169 0.000000 0.000000 0.000000 0.047863 -0.131838 -0.017169 0.950612 -0.063853 0.165570 0.546150 -0.318175 -0.171649 -0.047936 0.131638 0.016944 -0.058088 0.034556 0.234075 0.686789 -0.494028 0.073058 0.597606 0.011817 -0.176446 1.021675 0.063260 -0.062829 0.246044 -0.233373 -0.173399 -0.089929 0.093566 0.032743 0.956985 -0.124060 -0.244626 -0.040083 -0.646411 -0.539773 0.257431 -0.767345 -0.461684 1.101794 0.006323 0.005718 0.348994 -0.275378 -0.040686 0.423361 -0.522470 -0.039657
0.000004 1.092994 0.000102 0.000000 0.000000 0.000000 -0.001553 -0.145534 -0.005984 0.792296 -0.042584 0.073707 0.491688 -0.296264 -0.063512 0.001477 0.145361 0.005884 -0.115263 0.025027 0.133450 0.608897 -0.417286 0.097150 0.577879 0.017482 -0.145092 0.979379 0.091647 -0.086514 0.299172 -0.243794 -0.192021 -0.108975 0.076857 -0.007716 0.960266 -0.030478 -0.237794 -0.055820 -0.590556 -0.565529 0.135285 -0.777572 -0.526813 0.994304 0.029068 -0.009833 0.567511 -0.374804 -0.038667 0.510203 -0.487528 -0.055160
0.000004 1.092983 0.000021 0.000000 0.000000 0.000000 -0.052000 -0.133987 0.008654 0.567411 -0.064043 -0.035871 0.455070 -0.211141 0.003861 0.051923 0.133840 -0.008599 -0.216875 -0.080707 0.019108 0.495792 -0.399991 0.109056 0.492208 0.022812 -0.134675 0.845387 0.112644 -0.145319 0.367691 -0.187655 -0.251865 0.005762 0.073634 -0.110074 0.905951 0.032001 -0.237965 0.025394 -0.400613 -0.559647 0.132133 -0.686622 -0.554298 0.763158 0.043941 -0.082624 0.832309 -0.465715 -0.090332 0.569804 -0.462937 -0.094812
